<svg width="40" height="40" viewBox="0 0 40 40" fill="none" xmlns="http://www.w3.org/2000/svg">
<mask id="mask0_151_51" style="mask-type:alpha" maskUnits="userSpaceOnUse" x="0" y="0" width="40" height="40">
<rect width="40" height="40" fill="#D9D9D9"/>
</mask>
<g mask="url(#mask0_151_51)">
<path d="M9.75001 28.5C11.1667 27.4166 12.75 26.5622 14.5 25.9366C16.25 25.3122 18.0833 25 20 25C21.9167 25 23.75 25.3122 25.5 25.9366C27.25 26.5622 28.8333 27.4166 30.25 28.5C31.2222 27.3611 31.9795 26.0694 32.5217 24.625C33.0628 23.1805 33.3333 21.6389 33.3333 20C33.3333 16.3055 32.035 13.1594 29.4383 10.5616C26.8406 7.96498 23.6945 6.66665 20 6.66665C16.3056 6.66665 13.16 7.96498 10.5633 10.5616C7.96557 13.1594 6.66668 16.3055 6.66668 20C6.66668 21.6389 6.93779 23.1805 7.48001 24.625C8.02112 26.0694 8.77779 27.3611 9.75001 28.5ZM20 21.6666C18.3611 21.6666 16.9789 21.1044 15.8533 19.98C14.7289 18.8544 14.1667 17.4722 14.1667 15.8333C14.1667 14.1944 14.7289 12.8122 15.8533 11.6866C16.9789 10.5622 18.3611 9.99998 20 9.99998C21.6389 9.99998 23.0211 10.5622 24.1467 11.6866C25.2711 12.8122 25.8333 14.1944 25.8333 15.8333C25.8333 17.4722 25.2711 18.8544 24.1467 19.98C23.0211 21.1044 21.6389 21.6666 20 21.6666ZM20 36.6666C17.6945 36.6666 15.5278 36.2289 13.5 35.3533C11.4722 34.4789 9.70834 33.2916 8.20834 31.7916C6.70834 30.2916 5.52112 28.5278 4.64668 26.5C3.77112 24.4722 3.33334 22.3055 3.33334 20C3.33334 17.6944 3.77112 15.5278 4.64668 13.5C5.52112 11.4722 6.70834 9.70831 8.20834 8.20831C9.70834 6.70831 11.4722 5.52053 13.5 4.64498C15.5278 3.77054 17.6945 3.33331 20 3.33331C22.3056 3.33331 24.4722 3.77054 26.5 4.64498C28.5278 5.52053 30.2917 6.70831 31.7917 8.20831C33.2917 9.70831 34.4789 11.4722 35.3533 13.5C36.2289 15.5278 36.6667 17.6944 36.6667 20C36.6667 22.3055 36.2289 24.4722 35.3533 26.5C34.4789 28.5278 33.2917 30.2916 31.7917 31.7916C30.2917 33.2916 28.5278 34.4789 26.5 35.3533C24.4722 36.2289 22.3056 36.6666 20 36.6666ZM20 33.3333C21.4722 33.3333 22.8611 33.1183 24.1667 32.6883C25.4722 32.2572 26.6667 31.6389 27.75 30.8333C26.6667 30.0278 25.4722 29.4094 24.1667 28.9783C22.8611 28.5483 21.4722 28.3333 20 28.3333C18.5278 28.3333 17.1389 28.5483 15.8333 28.9783C14.5278 29.4094 13.3333 30.0278 12.25 30.8333C13.3333 31.6389 14.5278 32.2572 15.8333 32.6883C17.1389 33.1183 18.5278 33.3333 20 33.3333ZM20 18.3333C20.7222 18.3333 21.3195 18.0972 21.7917 17.625C22.2639 17.1528 22.5 16.5555 22.5 15.8333C22.5 15.1111 22.2639 14.5139 21.7917 14.0416C21.3195 13.5694 20.7222 13.3333 20 13.3333C19.2778 13.3333 18.6806 13.5694 18.2083 14.0416C17.7361 14.5139 17.5 15.1111 17.5 15.8333C17.5 16.5555 17.7361 17.1528 18.2083 17.625C18.6806 18.0972 19.2778 18.3333 20 18.3333Z" fill="#D3D3D3"/>
</g>
</svg>
