<svg width="40" height="37" viewBox="0 0 40 37" fill="none" xmlns="http://www.w3.org/2000/svg">
<g filter="url(#filter0_d_151_50)">
<path d="M9.75001 25.5C11.1667 24.4166 12.75 23.5622 14.5 22.9366C16.25 22.3122 18.0833 22 20 22C21.9167 22 23.75 22.3122 25.5 22.9366C27.25 23.5622 28.8333 24.4166 30.25 25.5C31.2222 24.3611 31.9795 23.0694 32.5217 21.625C33.0628 20.1805 33.3333 18.6389 33.3333 17C33.3333 13.3055 32.035 10.1594 29.4383 7.56165C26.8406 4.96498 23.6945 3.66665 20 3.66665C16.3056 3.66665 13.16 4.96498 10.5633 7.56165C7.96557 10.1594 6.66668 13.3055 6.66668 17C6.66668 18.6389 6.93779 20.1805 7.48001 21.625C8.02112 23.0694 8.77779 24.3611 9.75001 25.5ZM20 18.6666C18.3611 18.6666 16.9789 18.1044 15.8533 16.98C14.7289 15.8544 14.1667 14.4722 14.1667 12.8333C14.1667 11.1944 14.7289 9.8122 15.8533 8.68665C16.9789 7.5622 18.3611 6.99998 20 6.99998C21.6389 6.99998 23.0211 7.5622 24.1467 8.68665C25.2711 9.8122 25.8333 11.1944 25.8333 12.8333C25.8333 14.4722 25.2711 15.8544 24.1467 16.98C23.0211 18.1044 21.6389 18.6666 20 18.6666ZM20 33.6666C17.6945 33.6666 15.5278 33.2289 13.5 32.3533C11.4722 31.4789 9.70834 30.2916 8.20834 28.7916C6.70834 27.2916 5.52112 25.5278 4.64668 23.5C3.77112 21.4722 3.33334 19.3055 3.33334 17C3.33334 14.6944 3.77112 12.5278 4.64668 10.5C5.52112 8.4722 6.70834 6.70831 8.20834 5.20831C9.70834 3.70831 11.4722 2.52053 13.5 1.64498C15.5278 0.770535 17.6945 0.333313 20 0.333313C22.3056 0.333313 24.4722 0.770535 26.5 1.64498C28.5278 2.52053 30.2917 3.70831 31.7917 5.20831C33.2917 6.70831 34.4789 8.4722 35.3533 10.5C36.2289 12.5278 36.6667 14.6944 36.6667 17C36.6667 19.3055 36.2289 21.4722 35.3533 23.5C34.4789 25.5278 33.2917 27.2916 31.7917 28.7916C30.2917 30.2916 28.5278 31.4789 26.5 32.3533C24.4722 33.2289 22.3056 33.6666 20 33.6666ZM20 30.3333C21.4722 30.3333 22.8611 30.1183 24.1667 29.6883C25.4722 29.2572 26.6667 28.6389 27.75 27.8333C26.6667 27.0278 25.4722 26.4094 24.1667 25.9783C22.8611 25.5483 21.4722 25.3333 20 25.3333C18.5278 25.3333 17.1389 25.5483 15.8333 25.9783C14.5278 26.4094 13.3333 27.0278 12.25 27.8333C13.3333 28.6389 14.5278 29.2572 15.8333 29.6883C17.1389 30.1183 18.5278 30.3333 20 30.3333ZM20 15.3333C20.7222 15.3333 21.3195 15.0972 21.7917 14.625C22.2639 14.1528 22.5 13.5555 22.5 12.8333C22.5 12.1111 22.2639 11.5139 21.7917 11.0416C21.3195 10.5694 20.7222 10.3333 20 10.3333C19.2778 10.3333 18.6806 10.5694 18.2083 11.0416C17.7361 11.5139 17.5 12.1111 17.5 12.8333C17.5 13.5555 17.7361 14.1528 18.2083 14.625C18.6806 15.0972 19.2778 15.3333 20 15.3333Z" fill="#D3D3D3"/>
</g>
<defs>
<filter id="filter0_d_151_50" x="-0.666656" y="0.333313" width="41.3333" height="41.3333" filterUnits="userSpaceOnUse" color-interpolation-filters="sRGB">
<feFlood flood-opacity="0" result="BackgroundImageFix"/>
<feColorMatrix in="SourceAlpha" type="matrix" values="0 0 0 0 0 0 0 0 0 0 0 0 0 0 0 0 0 0 127 0" result="hardAlpha"/>
<feOffset dy="4"/>
<feGaussianBlur stdDeviation="2"/>
<feComposite in2="hardAlpha" operator="out"/>
<feColorMatrix type="matrix" values="0 0 0 0 0 0 0 0 0 0 0 0 0 0 0 0 0 0 0.25 0"/>
<feBlend mode="normal" in2="BackgroundImageFix" result="effect1_dropShadow_151_50"/>
<feBlend mode="normal" in="SourceGraphic" in2="effect1_dropShadow_151_50" result="shape"/>
</filter>
</defs>
</svg>
